<svg xmlns="http://www.w3.org/2000/svg" width="1920" height="1080"><path d="M1015,522L919,589L1053,659Z" fill="#65a9d3" stroke="#65a9d3" stroke-width="1.51"/><path d="M919,589L890,643L1053,659Z" fill="#64a8d3" stroke="#64a8d3" stroke-width="1.51"/><path d="M1053,659L1151,637L1015,522Z" fill="#5ea4d0" stroke="#5ea4d0" stroke-width="1.51"/><path d="M1015,522L920,413L919,589Z" fill="#70b0d7" stroke="#70b0d7" stroke-width="1.51"/><path d="M919,589L753,544L890,643Z" fill="#70afd6" stroke="#70afd6" stroke-width="1.51"/><path d="M1022,336L920,413L1015,522Z" fill="#79b4d9" stroke="#79b4d9" stroke-width="1.51"/><path d="M890,643L1013,809L1053,659Z" fill="#5ba2d0" stroke="#5ba2d0" stroke-width="1.51"/><path d="M1053,659L1013,809L1151,637Z" fill="#559ecd" stroke="#559ecd" stroke-width="1.51"/><path d="M920,413L753,544L919,589Z" fill="#77b4d8" stroke="#77b4d8" stroke-width="1.51"/><path d="M890,643L895,871L1013,809Z" fill="#599fce" stroke="#599fce" stroke-width="1.51"/><path d="M1151,637L1237,501L1015,522Z" fill="#5fa5d1" stroke="#5fa5d1" stroke-width="1.51"/><path d="M1220,426L1022,336L1015,522Z" fill="#72afd6" stroke="#72afd6" stroke-width="1.51"/><path d="M1237,501L1220,426L1015,522Z" fill="#67a8d3" stroke="#67a8d3" stroke-width="1.51"/><path d="M735,800L895,871L890,643Z" fill="#62a4cf" stroke="#62a4cf" stroke-width="1.51"/><path d="M1151,637L1300,563L1237,501Z" fill="#589fce" stroke="#589fce" stroke-width="1.51"/><path d="M1237,501L1345,389L1220,426Z" fill="#66a6d1" stroke="#66a6d1" stroke-width="1.51"/><path d="M1310,636L1300,563L1151,637Z" fill="#529bcc" stroke="#529bcc" stroke-width="1.51"/><path d="M1210,894L1310,636L1151,637Z" fill="#4996c8" stroke="#4996c8" stroke-width="1.51"/><path d="M920,413L691,402L753,544Z" fill="#85bbdc" stroke="#85bbdc" stroke-width="1.51"/><path d="M1022,336L932,281L920,413Z" fill="#84bbdb" stroke="#84bbdb" stroke-width="1.51"/><path d="M1054,276L932,281L1022,336Z" fill="#87bbdc" stroke="#87bbdc" stroke-width="1.51"/><path d="M753,544L705,745L890,643Z" fill="#72afd5" stroke="#72afd5" stroke-width="1.51"/><path d="M1220,426L1054,276L1022,336Z" fill="#7cb4d8" stroke="#7cb4d8" stroke-width="1.51"/><path d="M705,745L735,800L890,643Z" fill="#6baad3" stroke="#6baad3" stroke-width="1.51"/><path d="M1013,809L1210,894L1151,637Z" fill="#4b96c9" stroke="#4b96c9" stroke-width="1.51"/><path d="M978,1046L1210,894L1013,809Z" fill="#478ec5" stroke="#478ec5" stroke-width="1.51"/><path d="M788,251L691,402L920,413Z" fill="#90c1de" stroke="#90c1de" stroke-width="1.51"/><path d="M753,544L611,572L705,745Z" fill="#7cb5d8" stroke="#7cb5d8" stroke-width="1.51"/><path d="M895,871L898,964L1013,809Z" fill="#5396ca" stroke="#5396ca" stroke-width="1.51"/><path d="M782,1047L898,964L895,871Z" fill="#5693c8" stroke="#5693c8" stroke-width="1.51"/><path d="M691,402L611,572L753,544Z" fill="#87bcdc" stroke="#87bcdc" stroke-width="1.51"/><path d="M1220,426L1247,238L1054,276Z" fill="#7bb2d7" stroke="#7bb2d7" stroke-width="1.51"/><path d="M1300,563L1345,389L1237,501Z" fill="#5fa2cf" stroke="#5fa2cf" stroke-width="1.51"/><path d="M1516,437L1345,389L1300,563Z" fill="#5f9ecd" stroke="#5f9ecd" stroke-width="1.51"/><path d="M932,281L788,251L920,413Z" fill="#8ec0de" stroke="#8ec0de" stroke-width="1.51"/><path d="M774,109L788,251L932,281Z" fill="#9bc6e2" stroke="#9bc6e2" stroke-width="1.51"/><path d="M735,800L782,1047L895,871Z" fill="#5f9acb" stroke="#5f9acb" stroke-width="1.51"/><path d="M705,745L628,816L735,800Z" fill="#6fa9d2" stroke="#6fa9d2" stroke-width="1.51"/><path d="M591,744L628,816L705,745Z" fill="#75acd4" stroke="#75acd4" stroke-width="1.51"/><path d="M611,572L591,744L705,745Z" fill="#7bb2d7" stroke="#7bb2d7" stroke-width="1.51"/><path d="M1210,894L1380,813L1310,636Z" fill="#3f8dc4" stroke="#3f8dc4" stroke-width="1.51"/><path d="M1310,636L1525,563L1300,563Z" fill="#4f97c9" stroke="#4f97c9" stroke-width="1.51"/><path d="M927,23L774,109L932,281Z" fill="#9fc7e3" stroke="#9fc7e3" stroke-width="1.51"/><path d="M1345,389L1247,238L1220,426Z" fill="#72acd3" stroke="#72acd3" stroke-width="1.51"/><path d="M898,964L978,1046L1013,809Z" fill="#4d90c7" stroke="#4d90c7" stroke-width="1.51"/><path d="M1210,894L1374,1048L1380,813Z" fill="#3482be" stroke="#3482be" stroke-width="1.51"/><path d="M782,1047L978,1046L898,964Z" fill="#518dc4" stroke="#518dc4" stroke-width="1.51"/><path d="M1380,813L1446,696L1310,636Z" fill="#418ec5" stroke="#418ec5" stroke-width="1.51"/><path d="M628,816L782,1047L735,800Z" fill="#68a0cd" stroke="#68a0cd" stroke-width="1.51"/><path d="M978,1046L1242,1033L1210,894Z" fill="#3d85bf" stroke="#3d85bf" stroke-width="1.51"/><path d="M611,572L430,678L591,744Z" fill="#83b6da" stroke="#83b6da" stroke-width="1.51"/><path d="M691,402L518,437L611,572Z" fill="#91c2df" stroke="#91c2df" stroke-width="1.51"/><path d="M562,215L518,437L691,402Z" fill="#a0cae2" stroke="#a0cae2" stroke-width="1.51"/><path d="M1446,696L1525,563L1310,636Z" fill="#4891c6" stroke="#4891c6" stroke-width="1.51"/><path d="M1345,389L1382,193L1247,238Z" fill="#78acd4" stroke="#78acd4" stroke-width="1.51"/><path d="M1638,558L1525,563L1652,674Z" fill="#4589c2" stroke="#4589c2" stroke-width="1.51"/><path d="M1380,813L1475,852L1446,696Z" fill="#3886c0" stroke="#3886c0" stroke-width="1.51"/><path d="M1374,1048L1475,852L1380,813Z" fill="#317ebc" stroke="#317ebc" stroke-width="1.51"/><path d="M518,437L460,571L611,572Z" fill="#90c0df" stroke="#90c0df" stroke-width="1.51"/><path d="M591,744L520,944L628,816Z" fill="#76a9d2" stroke="#76a9d2" stroke-width="1.51"/><path d="M520,944L711,1108L782,1047Z" fill="#6595c7" stroke="#6595c7" stroke-width="1.51"/><path d="M788,251L562,215L691,402Z" fill="#a0cae2" stroke="#a0cae2" stroke-width="1.51"/><path d="M1030,25L932,281L1054,276Z" fill="#91bfdf" stroke="#91bfdf" stroke-width="1.51"/><path d="M1525,563L1516,437L1300,563Z" fill="#5497ca" stroke="#5497ca" stroke-width="1.51"/><path d="M1516,437L1382,193L1345,389Z" fill="#6ea5cf" stroke="#6ea5cf" stroke-width="1.51"/><path d="M1247,238L1030,25L1054,276Z" fill="#8cbbdd" stroke="#8cbbdd" stroke-width="1.51"/><path d="M978,1046L1007,1175L1242,1033Z" fill="#3f80bb" stroke="#3f80bb" stroke-width="1.51"/><path d="M782,1047L930,1156L978,1046Z" fill="#4e88bf" stroke="#4e88bf" stroke-width="1.51"/><path d="M460,571L430,678L611,572Z" fill="#8bbbdd" stroke="#8bbbdd" stroke-width="1.51"/><path d="M930,1156L1007,1175L978,1046Z" fill="#4681bb" stroke="#4681bb" stroke-width="1.51"/><path d="M1240,23L1030,25L1247,238Z" fill="#91bbde" stroke="#91bbde" stroke-width="1.51"/><path d="M1030,25L927,23L932,281Z" fill="#9bc5e3" stroke="#9bc5e3" stroke-width="1.51"/><path d="M774,109L562,215L788,251Z" fill="#a7cde4" stroke="#a7cde4" stroke-width="1.51"/><path d="M518,437L416,373L460,571Z" fill="#9cc6e2" stroke="#9cc6e2" stroke-width="1.51"/><path d="M554,88L562,215L774,109Z" fill="#b2d2e8" stroke="#b2d2e8" stroke-width="1.51"/><path d="M782,1047L711,1108L930,1156Z" fill="#568abf" stroke="#568abf" stroke-width="1.51"/><path d="M930,1156L876,1269L1007,1175Z" fill="#467db6" stroke="#467db6" stroke-width="1.51"/><path d="M520,944L782,1047L628,816Z" fill="#6b9fcc" stroke="#6b9fcc" stroke-width="1.51"/><path d="M1366,1151L1374,1048L1242,1033Z" fill="#2c75b5" stroke="#2c75b5" stroke-width="1.51"/><path d="M1242,1033L1374,1048L1210,894Z" fill="#327ebc" stroke="#327ebc" stroke-width="1.51"/><path d="M398,788L520,944L591,744Z" fill="#7cabd4" stroke="#7cabd4" stroke-width="1.51"/><path d="M1382,193L1329,77L1247,238Z" fill="#83b1d8" stroke="#83b1d8" stroke-width="1.51"/><path d="M1551,82L1329,77L1382,193Z" fill="#85add7" stroke="#85add7" stroke-width="1.51"/><path d="M460,571L305,555L430,678Z" fill="#92bfdf" stroke="#92bfdf" stroke-width="1.51"/><path d="M448,280L416,373L518,437Z" fill="#a7cde4" stroke="#a7cde4" stroke-width="1.51"/><path d="M1329,77L1240,23L1247,238Z" fill="#8bb5db" stroke="#8bb5db" stroke-width="1.51"/><path d="M1030,25L1022,-49L927,23Z" fill="#a0c7e4" stroke="#a0c7e4" stroke-width="1.51"/><path d="M430,678L398,788L591,744Z" fill="#83b3d8" stroke="#83b3d8" stroke-width="1.51"/><path d="M309,700L398,788L430,678Z" fill="#8ab7db" stroke="#8ab7db" stroke-width="1.51"/><path d="M562,215L448,280L518,437Z" fill="#aacee5" stroke="#aacee5" stroke-width="1.51"/><path d="M1007,1175L1234,1194L1242,1033Z" fill="#3779b6" stroke="#3779b6" stroke-width="1.51"/><path d="M1516,437L1541,172L1382,193Z" fill="#73a4d0" stroke="#73a4d0" stroke-width="1.51"/><path d="M1525,563L1638,558L1516,437Z" fill="#4f91c7" stroke="#4f91c7" stroke-width="1.51"/><path d="M1652,674L1525,563L1446,696Z" fill="#428ac3" stroke="#428ac3" stroke-width="1.51"/><path d="M1652,674L1446,696L1475,852Z" fill="#3784c0" stroke="#3784c0" stroke-width="1.51"/><path d="M1289,-110L1184,-19L1240,23Z" fill="#95bddf" stroke="#95bddf" stroke-width="1.51"/><path d="M1240,23L1184,-19L1030,25Z" fill="#97bfe0" stroke="#97bfe0" stroke-width="1.51"/><path d="M613,-53L554,88L774,109Z" fill="#b7d5e9" stroke="#b7d5e9" stroke-width="1.51"/><path d="M562,215L466,65L448,280Z" fill="#b6d4e9" stroke="#b6d4e9" stroke-width="1.51"/><path d="M1184,-19L1022,-49L1030,25Z" fill="#9cc3e2" stroke="#9cc3e2" stroke-width="1.51"/><path d="M1638,558L1621,412L1516,437Z" fill="#5692c7" stroke="#5692c7" stroke-width="1.51"/><path d="M1682,904L1652,674L1475,852Z" fill="#2e7bba" stroke="#2e7bba" stroke-width="1.51"/><path d="M1765,370L1625,274L1621,412Z" fill="#6495c7" stroke="#6495c7" stroke-width="1.51"/><path d="M1234,1194L1366,1151L1242,1033Z" fill="#2d74b3" stroke="#2d74b3" stroke-width="1.51"/><path d="M1374,1048L1529,1053L1475,852Z" fill="#2875b6" stroke="#2875b6" stroke-width="1.51"/><path d="M755,-76L774,109L927,23Z" fill="#accee7" stroke="#accee7" stroke-width="1.51"/><path d="M711,1108L876,1269L930,1156Z" fill="#5182ba" stroke="#5182ba" stroke-width="1.51"/><path d="M1007,1175L1050,1343L1234,1194Z" fill="#3972ae" stroke="#3972ae" stroke-width="1.51"/><path d="M618,1257L876,1269L711,1108Z" fill="#5984b8" stroke="#5984b8" stroke-width="1.51"/><path d="M1625,274L1541,172L1516,437Z" fill="#6e9ecd" stroke="#6e9ecd" stroke-width="1.51"/><path d="M1329,77L1289,-110L1240,23Z" fill="#91b9dd" stroke="#91b9dd" stroke-width="1.51"/><path d="M416,373L305,555L460,571Z" fill="#9cc5e3" stroke="#9cc5e3" stroke-width="1.51"/><path d="M290,384L305,555L416,373Z" fill="#a7cbe5" stroke="#a7cbe5" stroke-width="1.51"/><path d="M398,788L380,1008L520,944Z" fill="#7ca6d2" stroke="#7ca6d2" stroke-width="1.51"/><path d="M305,555L309,700L430,678Z" fill="#93bddf" stroke="#93bddf" stroke-width="1.51"/><path d="M1503,1160L1529,1053L1374,1048Z" fill="#236db0" stroke="#236db0" stroke-width="1.51"/><path d="M1765,370L1621,412L1807,510Z" fill="#588cc2" stroke="#588cc2" stroke-width="1.51"/><path d="M1621,412L1625,274L1516,437Z" fill="#6399ca" stroke="#6399ca" stroke-width="1.51"/><path d="M876,-110L755,-76L927,23Z" fill="#aed0e8" stroke="#aed0e8" stroke-width="1.51"/><path d="M1051,-172L876,-110L1022,-49Z" fill="#a7cce7" stroke="#a7cce7" stroke-width="1.51"/><path d="M1022,-49L876,-110L927,23Z" fill="#a6cbe6" stroke="#a6cbe6" stroke-width="1.51"/><path d="M520,944L465,1133L711,1108Z" fill="#6d96c7" stroke="#6d96c7" stroke-width="1.51"/><path d="M296,901L380,1008L398,788Z" fill="#82a9d4" stroke="#82a9d4" stroke-width="1.51"/><path d="M161,734L296,901L309,700Z" fill="#8db6db" stroke="#8db6db" stroke-width="1.51"/><path d="M448,280L290,384L416,373Z" fill="#aed0e6" stroke="#aed0e6" stroke-width="1.51"/><path d="M232,226L290,384L448,280Z" fill="#b6d4e9" stroke="#b6d4e9" stroke-width="1.51"/><path d="M876,1269L1050,1343L1007,1175Z" fill="#4175ad" stroke="#4175ad" stroke-width="1.51"/><path d="M1384,1338L1503,1160L1366,1151Z" fill="#2365a8" stroke="#2365a8" stroke-width="1.51"/><path d="M1366,1151L1503,1160L1374,1048Z" fill="#256db0" stroke="#256db0" stroke-width="1.51"/><path d="M1529,1053L1682,904L1475,852Z" fill="#2573b7" stroke="#2573b7" stroke-width="1.51"/><path d="M1807,510L1621,412L1638,558Z" fill="#508bc2" stroke="#508bc2" stroke-width="1.51"/><path d="M1529,1053L1710,993L1682,904Z" fill="#1e6cb1" stroke="#1e6cb1" stroke-width="1.51"/><path d="M1384,1338L1366,1151L1234,1194Z" fill="#2869a9" stroke="#2869a9" stroke-width="1.51"/><path d="M380,1008L465,1133L520,944Z" fill="#759ccc" stroke="#759ccc" stroke-width="1.51"/><path d="M876,1269L670,1364L1050,1343Z" fill="#4a75a8" stroke="#4a75a8" stroke-width="1.51"/><path d="M465,1133L554,1210L711,1108Z" fill="#698ec1" stroke="#698ec1" stroke-width="1.51"/><path d="M554,88L466,65L562,215Z" fill="#bad6eb" stroke="#bad6eb" stroke-width="1.51"/><path d="M613,-53L466,65L554,88Z" fill="#bed8ec" stroke="#bed8ec" stroke-width="1.51"/><path d="M1646,41L1551,82L1541,172Z" fill="#80a4d3" stroke="#80a4d3" stroke-width="1.51"/><path d="M1541,172L1551,82L1382,193Z" fill="#7fa8d4" stroke="#7fa8d4" stroke-width="1.51"/><path d="M1184,-19L1051,-172L1022,-49Z" fill="#a0c5e3" stroke="#a0c5e3" stroke-width="1.51"/><path d="M755,-76L613,-53L774,109Z" fill="#b5d4e9" stroke="#b5d4e9" stroke-width="1.51"/><path d="M774,-178L613,-53L755,-76Z" fill="#bad8eb" stroke="#bad8eb" stroke-width="1.51"/><path d="M554,1210L618,1257L711,1108Z" fill="#638abd" stroke="#638abd" stroke-width="1.51"/><path d="M161,734L309,700L103,598Z" fill="#97bfe0" stroke="#97bfe0" stroke-width="1.51"/><path d="M309,700L296,901L398,788Z" fill="#89b3d9" stroke="#89b3d9" stroke-width="1.51"/><path d="M380,1008L280,1111L465,1133Z" fill="#7999ca" stroke="#7999ca" stroke-width="1.51"/><path d="M1352,-177L1289,-110L1535,-93Z" fill="#95b7dc" stroke="#95b7dc" stroke-width="1.51"/><path d="M1248,-207L1051,-172L1184,-19Z" fill="#9fc4e2" stroke="#9fc4e2" stroke-width="1.51"/><path d="M876,-110L774,-178L755,-76Z" fill="#b5d4ea" stroke="#b5d4ea" stroke-width="1.51"/><path d="M1050,1343L1228,1355L1234,1194Z" fill="#326aa4" stroke="#326aa4" stroke-width="1.51"/><path d="M1807,510L1638,558L1815,653Z" fill="#4482bc" stroke="#4482bc" stroke-width="1.51"/><path d="M1625,274L1646,41L1541,172Z" fill="#7aa1d0" stroke="#7aa1d0" stroke-width="1.51"/><path d="M893,-215L774,-178L876,-110Z" fill="#b5d4ea" stroke="#b5d4ea" stroke-width="1.51"/><path d="M1815,653L1638,558L1652,674Z" fill="#3f82bd" stroke="#3f82bd" stroke-width="1.51"/><path d="M1756,1019L1710,993L1676,1182Z" fill="#1861a9" stroke="#1861a9" stroke-width="1.51"/><path d="M1792,791L1652,674L1682,904Z" fill="#2d77b6" stroke="#2d77b6" stroke-width="1.51"/><path d="M1756,1019L1792,791L1682,904Z" fill="#226cb0" stroke="#226cb0" stroke-width="1.51"/><path d="M1792,791L1815,653L1652,674Z" fill="#357ab7" stroke="#357ab7" stroke-width="1.51"/><path d="M1051,-172L893,-215L876,-110Z" fill="#aed0e9" stroke="#aed0e9" stroke-width="1.51"/><path d="M1248,-207L893,-215L1051,-172Z" fill="#a8cbe6" stroke="#a8cbe6" stroke-width="1.51"/><path d="M366,1250L670,1364L618,1257Z" fill="#6583b3" stroke="#6583b3" stroke-width="1.51"/><path d="M618,1257L670,1364L876,1269Z" fill="#587dae" stroke="#587dae" stroke-width="1.51"/><path d="M1050,1343L670,1364L1228,1355Z" fill="#3e6ea2" stroke="#3e6ea2" stroke-width="1.51"/><path d="M366,1250L618,1257L554,1210Z" fill="#6a89b9" stroke="#6a89b9" stroke-width="1.51"/><path d="M1228,1355L1384,1338L1234,1194Z" fill="#2a66a1" stroke="#2a66a1" stroke-width="1.51"/><path d="M1676,1182L1710,993L1529,1053Z" fill="#1a65ab" stroke="#1a65ab" stroke-width="1.51"/><path d="M1289,-110L1248,-207L1184,-19Z" fill="#9abfe0" stroke="#9abfe0" stroke-width="1.51"/><path d="M1352,-177L1248,-207L1289,-110Z" fill="#9abedf" stroke="#9abedf" stroke-width="1.51"/><path d="M103,598L309,700L305,555Z" fill="#99c2e1" stroke="#99c2e1" stroke-width="1.51"/><path d="M296,901L211,995L380,1008Z" fill="#81a5d2" stroke="#81a5d2" stroke-width="1.51"/><path d="M466,65L232,226L448,280Z" fill="#bdd7eb" stroke="#bdd7eb" stroke-width="1.51"/><path d="M290,384L154,433L305,555Z" fill="#a8cce6" stroke="#a8cce6" stroke-width="1.51"/><path d="M223,29L232,226L466,65Z" fill="#c8dcef" stroke="#c8dcef" stroke-width="1.51"/><path d="M456,-111L466,65L613,-53Z" fill="#c4dcee" stroke="#c4dcee" stroke-width="1.51"/><path d="M1535,-93L1289,-110L1329,77Z" fill="#90b5db" stroke="#90b5db" stroke-width="1.51"/><path d="M1551,82L1535,-93L1329,77Z" fill="#89add7" stroke="#89add7" stroke-width="1.51"/><path d="M1844,232L1646,41L1625,274Z" fill="#769acb" stroke="#769acb" stroke-width="1.51"/><path d="M232,226L154,433L290,384Z" fill="#b5d4e9" stroke="#b5d4e9" stroke-width="1.51"/><path d="M1710,993L1756,1019L1682,904Z" fill="#1c69ae" stroke="#1c69ae" stroke-width="1.51"/><path d="M1792,791L1899,691L1815,653Z" fill="#3376b4" stroke="#3376b4" stroke-width="1.51"/><path d="M1676,1182L1529,1053L1503,1160Z" fill="#1a64ab" stroke="#1a64ab" stroke-width="1.51"/><path d="M1646,41L1535,-93L1551,82Z" fill="#86a8d4" stroke="#86a8d4" stroke-width="1.51"/><path d="M465,1133L366,1250L554,1210Z" fill="#6f8ec0" stroke="#6f8ec0" stroke-width="1.51"/><path d="M135,809L211,995L296,901Z" fill="#88acd6" stroke="#88acd6" stroke-width="1.51"/><path d="M211,995L280,1111L380,1008Z" fill="#7f9fce" stroke="#7f9fce" stroke-width="1.51"/><path d="M161,734L135,809L296,901Z" fill="#8eb4da" stroke="#8eb4da" stroke-width="1.51"/><path d="M-32,647L135,809L161,734Z" fill="#97bedf" stroke="#97bedf" stroke-width="1.51"/><path d="M1592,1315L1676,1182L1503,1160Z" fill="#165ca2" stroke="#165ca2" stroke-width="1.51"/><path d="M563,-224L613,-53L774,-178Z" fill="#c2dced" stroke="#c2dced" stroke-width="1.51"/><path d="M563,-224L456,-111L613,-53Z" fill="#c7dfef" stroke="#c7dfef" stroke-width="1.51"/><path d="M154,433L103,598L305,555Z" fill="#a2c9e5" stroke="#a2c9e5" stroke-width="1.51"/><path d="M1384,1338L1523,1327L1503,1160Z" fill="#1e5e9f" stroke="#1e5e9f" stroke-width="1.51"/><path d="M1805,1342L1523,1327L1384,1338Z" fill="#175395" stroke="#175395" stroke-width="1.51"/><path d="M1955,886L1899,691L1792,791Z" fill="#296eaf" stroke="#296eaf" stroke-width="1.51"/><path d="M1815,653L1950,490L1807,510Z" fill="#447fb9" stroke="#447fb9" stroke-width="1.51"/><path d="M2009,439L1844,232L1765,370Z" fill="#608abe" stroke="#608abe" stroke-width="1.51"/><path d="M1765,370L1844,232L1625,274Z" fill="#6994c5" stroke="#6994c5" stroke-width="1.51"/><path d="M280,1111L366,1250L465,1133Z" fill="#7793c5" stroke="#7793c5" stroke-width="1.51"/><path d="M1611,-279L1477,-212L1535,-93Z" fill="#94b2d9" stroke="#94b2d9" stroke-width="1.51"/><path d="M1950,490L1765,370L1807,510Z" fill="#5285bc" stroke="#5285bc" stroke-width="1.51"/><path d="M1523,1327L1592,1315L1503,1160Z" fill="#1a5b9e" stroke="#1a5b9e" stroke-width="1.51"/><path d="M893,-215L563,-224L774,-178Z" fill="#bfdaec" stroke="#bfdaec" stroke-width="1.51"/><path d="M274,-281L563,-224L893,-215Z" fill="#cce2f0" stroke="#cce2f0" stroke-width="1.51"/><path d="M1248,-207L1611,-279L893,-215Z" fill="#a1c3e2" stroke="#a1c3e2" stroke-width="1.51"/><path d="M1352,-177L1477,-212L1248,-207Z" fill="#9abcde" stroke="#9abcde" stroke-width="1.51"/><path d="M1535,-93L1477,-212L1352,-177Z" fill="#95b5db" stroke="#95b5db" stroke-width="1.51"/><path d="M1676,-87L1535,-93L1646,41Z" fill="#88a7d3" stroke="#88a7d3" stroke-width="1.51"/><path d="M456,-111L313,-59L466,65Z" fill="#cbdff0" stroke="#cbdff0" stroke-width="1.51"/><path d="M232,226L103,208L154,433Z" fill="#bdd8ec" stroke="#bdd8ec" stroke-width="1.51"/><path d="M406,-171L313,-59L456,-111Z" fill="#d0e2f3" stroke="#d0e2f3" stroke-width="1.51"/><path d="M1899,691L1950,490L1815,653Z" fill="#3d79b6" stroke="#3d79b6" stroke-width="1.51"/><path d="M313,-59L223,29L466,65Z" fill="#cddff1" stroke="#cddff1" stroke-width="1.51"/><path d="M154,433L-39,488L103,598Z" fill="#aacde7" stroke="#aacde7" stroke-width="1.51"/><path d="M1782,32L1676,-87L1646,41Z" fill="#84a1cf" stroke="#84a1cf" stroke-width="1.51"/><path d="M1844,232L1782,32L1646,41Z" fill="#7c9acb" stroke="#7c9acb" stroke-width="1.51"/><path d="M1925,70L1782,32L1844,232Z" fill="#7994c7" stroke="#7994c7" stroke-width="1.51"/><path d="M131,-15L153,21L223,29Z" fill="#d3e3f3" stroke="#d3e3f3" stroke-width="1.51"/><path d="M563,-224L406,-171L456,-111Z" fill="#cee2f1" stroke="#cee2f1" stroke-width="1.51"/><path d="M1592,1315L1765,1206L1676,1182Z" fill="#13569d" stroke="#13569d" stroke-width="1.51"/><path d="M1676,1182L1765,1206L1756,1019Z" fill="#135ba4" stroke="#135ba4" stroke-width="1.51"/><path d="M1756,1019L1955,886L1792,791Z" fill="#2068ad" stroke="#2068ad" stroke-width="1.51"/><path d="M223,29L103,208L232,226Z" fill="#c9ddf0" stroke="#c9ddf0" stroke-width="1.51"/><path d="M280,1111L211,1268L366,1250Z" fill="#7991c2" stroke="#7991c2" stroke-width="1.51"/><path d="M211,995L153,1159L280,1111Z" fill="#809dcc" stroke="#809dcc" stroke-width="1.51"/><path d="M135,809L87,1006L211,995Z" fill="#89abd6" stroke="#89abd6" stroke-width="1.51"/><path d="M-3,900L87,1006L135,809Z" fill="#8eb0d8" stroke="#8eb0d8" stroke-width="1.51"/><path d="M-32,647L161,734L103,598Z" fill="#9dc3e2" stroke="#9dc3e2" stroke-width="1.51"/><path d="M2114,525L2009,439L1950,490Z" fill="#4a78ae" stroke="#4a78ae" stroke-width="1.51"/><path d="M2018,1032L1955,886L1756,1019Z" fill="#165ea5" stroke="#165ea5" stroke-width="1.51"/><path d="M2009,439L1927,213L1844,232Z" fill="#6589bc" stroke="#6589bc" stroke-width="1.51"/><path d="M103,208L17,374L154,433Z" fill="#bcd8eb" stroke="#bcd8eb" stroke-width="1.51"/><path d="M87,1006L153,1159L211,995Z" fill="#84a1cf" stroke="#84a1cf" stroke-width="1.51"/><path d="M1950,490L2009,439L1765,370Z" fill="#5483ba" stroke="#5483ba" stroke-width="1.51"/><path d="M2071,672L1950,490L1899,691Z" fill="#3b74ae" stroke="#3b74ae" stroke-width="1.51"/><path d="M103,208L-25,178L17,374Z" fill="#c6ddee" stroke="#c6ddee" stroke-width="1.51"/><path d="M223,29L153,21L103,208Z" fill="#d0e1f2" stroke="#d0e1f2" stroke-width="1.51"/><path d="M131,-15L223,29L313,-59Z" fill="#d3e3f3" stroke="#d3e3f3" stroke-width="1.51"/><path d="M-39,488L-32,647L103,598Z" fill="#a6cae6" stroke="#a6cae6" stroke-width="1.51"/><path d="M153,1159L211,1268L280,1111Z" fill="#7d95c6" stroke="#7d95c6" stroke-width="1.51"/><path d="M366,1250L142,1363L670,1364Z" fill="#6e84b1" stroke="#6e84b1" stroke-width="1.51"/><path d="M17,374L-39,488L154,433Z" fill="#b3d3e9" stroke="#b3d3e9" stroke-width="1.51"/><path d="M-150,395L-39,488L17,374Z" fill="#b9d7ea" stroke="#b9d7ea" stroke-width="1.51"/><path d="M-32,647L-3,900L135,809Z" fill="#96bbdd" stroke="#96bbdd" stroke-width="1.51"/><path d="M87,1006L-62,1149L153,1159Z" fill="#869fcd" stroke="#869fcd" stroke-width="1.51"/><path d="M153,1159L142,1363L211,1268Z" fill="#7b8fbd" stroke="#7b8fbd" stroke-width="1.51"/><path d="M1963,-63L1782,-106L1782,32Z" fill="#839aca" stroke="#839aca" stroke-width="1.51"/><path d="M1782,32L1782,-106L1676,-87Z" fill="#85a0ce" stroke="#85a0ce" stroke-width="1.51"/><path d="M1676,-87L1611,-279L1535,-93Z" fill="#8fabd6" stroke="#8fabd6" stroke-width="1.51"/><path d="M153,21L-25,178L103,208Z" fill="#cfe1f2" stroke="#cfe1f2" stroke-width="1.51"/><path d="M120,-248L131,-15L313,-59Z" fill="#d9e7f5" stroke="#d9e7f5" stroke-width="1.51"/><path d="M1927,213L1925,70L1844,232Z" fill="#7290c2" stroke="#7290c2" stroke-width="1.51"/><path d="M2168,79L1925,70L1927,213Z" fill="#748bbb" stroke="#748bbb" stroke-width="1.51"/><path d="M1477,-212L1611,-279L1248,-207Z" fill="#99b8dc" stroke="#99b8dc" stroke-width="1.51"/><path d="M1782,-106L1611,-279L1676,-87Z" fill="#8ea7d3" stroke="#8ea7d3" stroke-width="1.51"/><path d="M1955,886L2071,672L1899,691Z" fill="#2b6ba9" stroke="#2b6ba9" stroke-width="1.51"/><path d="M2009,439L2138,265L1927,213Z" fill="#6183b3" stroke="#6183b3" stroke-width="1.51"/><path d="M1970,1135L2018,1032L1756,1019Z" fill="#1157a0" stroke="#1157a0" stroke-width="1.51"/><path d="M1955,886L2096,900L2071,672Z" fill="#2562a1" stroke="#2562a1" stroke-width="1.51"/><path d="M1592,1315L1805,1342L1765,1206Z" fill="#115095" stroke="#115095" stroke-width="1.51"/><path d="M1523,1327L1805,1342L1592,1315Z" fill="#145194" stroke="#145194" stroke-width="1.51"/><path d="M1228,1355L1805,1342L1384,1338Z" fill="#1d5897" stroke="#1d5897" stroke-width="1.51"/><path d="M-78,86L-25,178L153,21Z" fill="#d5e4f4" stroke="#d5e4f4" stroke-width="1.51"/><path d="M1970,1135L1756,1019L1765,1206Z" fill="#1057a1" stroke="#1057a1" stroke-width="1.51"/><path d="M1805,1342L1970,1135L1765,1206Z" fill="#0b4e97" stroke="#0b4e97" stroke-width="1.51"/><path d="M2214,695L2114,525L2071,672Z" fill="#376aa1" stroke="#376aa1" stroke-width="1.51"/><path d="M2071,672L2114,525L1950,490Z" fill="#4073aa" stroke="#4073aa" stroke-width="1.51"/><path d="M2114,525L2120,417L2009,439Z" fill="#4c76aa" stroke="#4c76aa" stroke-width="1.51"/><path d="M2018,1032L2096,900L1955,886Z" fill="#1a5a9e" stroke="#1a5a9e" stroke-width="1.51"/><path d="M2206,331L2138,265L2120,417Z" fill="#5a7aa7" stroke="#5a7aa7" stroke-width="1.51"/><path d="M2124,951L2096,900L2018,1032Z" fill="#175598" stroke="#175598" stroke-width="1.51"/><path d="M131,-15L-78,86L153,21Z" fill="#d6e5f4" stroke="#d6e5f4" stroke-width="1.51"/><path d="M406,-171L274,-281L313,-59Z" fill="#d7e6f5" stroke="#d7e6f5" stroke-width="1.51"/><path d="M563,-224L274,-281L406,-171Z" fill="#d6e6f4" stroke="#d6e6f4" stroke-width="1.51"/><path d="M1611,-279L274,-281L893,-215Z" fill="#b4d3ea" stroke="#b4d3ea" stroke-width="1.51"/><path d="M-205,967L-59,1033L-3,900Z" fill="#92aed7" stroke="#92aed7" stroke-width="1.51"/><path d="M-3,900L-59,1033L87,1006Z" fill="#8dabd6" stroke="#8dabd6" stroke-width="1.51"/><path d="M-218,849L-3,900L-32,647Z" fill="#9abcde" stroke="#9abcde" stroke-width="1.51"/><path d="M-42,1260L142,1363L153,1159Z" fill="#7e91be" stroke="#7e91be" stroke-width="1.51"/><path d="M211,1268L142,1363L366,1250Z" fill="#778ab8" stroke="#778ab8" stroke-width="1.51"/><path d="M-236,562L-196,668L-32,647Z" fill="#aacbe6" stroke="#aacbe6" stroke-width="1.51"/><path d="M-139,184L-150,395L17,374Z" fill="#c5deee" stroke="#c5deee" stroke-width="1.51"/><path d="M1782,-106L1851,-281L1611,-279Z" fill="#90a6d1" stroke="#90a6d1" stroke-width="1.51"/><path d="M1925,70L1963,-63L1782,32Z" fill="#7e96c7" stroke="#7e96c7" stroke-width="1.51"/><path d="M2168,79L1963,-63L1925,70Z" fill="#798dbb" stroke="#798dbb" stroke-width="1.51"/><path d="M2226,826L2214,695L2071,672Z" fill="#2b619a" stroke="#2b619a" stroke-width="1.51"/><path d="M2134,1104L2124,951L2018,1032Z" fill="#135093" stroke="#135093" stroke-width="1.51"/><path d="M2134,1104L2018,1032L1970,1135Z" fill="#0f4e94" stroke="#0f4e94" stroke-width="1.51"/><path d="M2120,417L2138,265L2009,439Z" fill="#587bac" stroke="#587bac" stroke-width="1.51"/><path d="M2206,331L2120,417L2323,574Z" fill="#4c72a2" stroke="#4c72a2" stroke-width="1.51"/><path d="M-25,178L-139,184L17,374Z" fill="#cae0f0" stroke="#cae0f0" stroke-width="1.51"/><path d="M-45,-44L-78,86L131,-15Z" fill="#dae8f6" stroke="#dae8f6" stroke-width="1.51"/><path d="M-59,1033L-62,1149L87,1006Z" fill="#8ba5d1" stroke="#8ba5d1" stroke-width="1.51"/><path d="M-242,1136L-62,1149L-59,1033Z" fill="#8ea3cf" stroke="#8ea3cf" stroke-width="1.51"/><path d="M-236,562L-32,647L-39,488Z" fill="#abcee8" stroke="#abcee8" stroke-width="1.51"/><path d="M-150,395L-236,562L-39,488Z" fill="#b6d5eb" stroke="#b6d5eb" stroke-width="1.51"/><path d="M-78,86L-139,184L-25,178Z" fill="#d4e4f4" stroke="#d4e4f4" stroke-width="1.51"/><path d="M2226,826L2071,672L2096,900Z" fill="#265e9a" stroke="#265e9a" stroke-width="1.51"/><path d="M-78,86L-177,108L-139,184Z" fill="#d8e7f5" stroke="#d8e7f5" stroke-width="1.51"/><path d="M274,-281L120,-248L313,-59Z" fill="#ddeaf7" stroke="#ddeaf7" stroke-width="1.51"/><path d="M120,-248L-45,-44L131,-15Z" fill="#deeaf7" stroke="#deeaf7" stroke-width="1.51"/><path d="M1963,-63L1851,-281L1782,-106Z" fill="#899dcb" stroke="#899dcb" stroke-width="1.51"/><path d="M1611,-279L1851,-281L274,-281Z" fill="#a4c5e3" stroke="#a4c5e3" stroke-width="1.51"/><path d="M1984,-260L1851,-281L1963,-63Z" fill="#8a9ac7" stroke="#8a9ac7" stroke-width="1.51"/><path d="M-62,1149L-42,1260L153,1159Z" fill="#8599c8" stroke="#8599c8" stroke-width="1.51"/><path d="M-242,1136L-42,1260L-62,1149Z" fill="#8b9dca" stroke="#8b9dca" stroke-width="1.51"/><path d="M-177,108L-236,562L-150,395Z" fill="#c5deee" stroke="#c5deee" stroke-width="1.51"/><path d="M-196,668L-218,849L-32,647Z" fill="#a2c4e2" stroke="#a2c4e2" stroke-width="1.51"/><path d="M2138,265L2168,79L1927,213Z" fill="#6b85b2" stroke="#6b85b2" stroke-width="1.51"/><path d="M2323,574L2120,417L2114,525Z" fill="#446ea0" stroke="#446ea0" stroke-width="1.51"/><path d="M-236,562L-218,849L-196,668Z" fill="#a7c8e4" stroke="#a7c8e4" stroke-width="1.51"/><path d="M2153,1311L2134,1104L1970,1135Z" fill="#09458a" stroke="#09458a" stroke-width="1.51"/><path d="M2124,951L2226,826L2096,900Z" fill="#1d5795" stroke="#1d5795" stroke-width="1.51"/><path d="M1805,1342L1989,1357L1970,1135Z" fill="#09468c" stroke="#09468c" stroke-width="1.51"/><path d="M1228,1355L1989,1357L1805,1342Z" fill="#124d8f" stroke="#124d8f" stroke-width="1.51"/><path d="M670,1364L1989,1357L1228,1355Z" fill="#27609a" stroke="#27609a" stroke-width="1.51"/><path d="M2214,695L2323,574L2114,525Z" fill="#3a689d" stroke="#3a689d" stroke-width="1.51"/><path d="M2310,941L2226,826L2124,951Z" fill="#1c5492" stroke="#1c5492" stroke-width="1.51"/><path d="M-218,849L-205,967L-3,900Z" fill="#97b5db" stroke="#97b5db" stroke-width="1.51"/><path d="M-186,-114L-177,108L-45,-44Z" fill="#e1ecf8" stroke="#e1ecf8" stroke-width="1.51"/><path d="M-45,-44L-177,108L-78,86Z" fill="#dce9f7" stroke="#dce9f7" stroke-width="1.51"/><path d="M-139,184L-177,108L-150,395Z" fill="#d0e3f2" stroke="#d0e3f2" stroke-width="1.51"/><path d="M2215,74L2168,79L2138,265Z" fill="#6d80ac" stroke="#6d80ac" stroke-width="1.51"/><path d="M120,-248L20,-263L-45,-44Z" fill="#e4eef9" stroke="#e4eef9" stroke-width="1.51"/><path d="M274,-281L20,-263L120,-248Z" fill="#e4eff9" stroke="#e4eff9" stroke-width="1.51"/><path d="M2087,-180L1984,-260L1963,-63Z" fill="#8595c0" stroke="#8595c0" stroke-width="1.51"/><path d="M2168,79L2125,-96L1963,-63Z" fill="#7a8bb6" stroke="#7a8bb6" stroke-width="1.51"/><path d="M2311,233L2215,74L2138,265Z" fill="#677da9" stroke="#677da9" stroke-width="1.51"/><path d="M2168,79L2209,-62L2125,-96Z" fill="#7786af" stroke="#7786af" stroke-width="1.51"/><path d="M2226,826L2323,574L2214,695Z" fill="#2f6299" stroke="#2f6299" stroke-width="1.51"/><path d="M2310,941L2323,574L2226,826Z" fill="#265d96" stroke="#265d96" stroke-width="1.51"/><path d="M2311,233L2138,265L2206,331Z" fill="#5f7aa6" stroke="#5f7aa6" stroke-width="1.51"/><path d="M2226,-240L2087,-180L2125,-96Z" fill="#808cb4" stroke="#808cb4" stroke-width="1.51"/><path d="M2125,-96L2087,-180L1963,-63Z" fill="#8090ba" stroke="#8090ba" stroke-width="1.51"/><path d="M-236,562L-242,1136L-218,849Z" fill="#9ebcde" stroke="#9ebcde" stroke-width="1.51"/><path d="M-218,849L-242,1136L-205,967Z" fill="#97b1d8" stroke="#97b1d8" stroke-width="1.51"/><path d="M-205,967L-242,1136L-59,1033Z" fill="#92aad4" stroke="#92aad4" stroke-width="1.51"/><path d="M2134,1104L2310,941L2124,951Z" fill="#144d8d" stroke="#144d8d" stroke-width="1.51"/><path d="M2269,1188L2310,941L2134,1104Z" fill="#104788" stroke="#104788" stroke-width="1.51"/><path d="M1989,1357L2153,1311L1970,1135Z" fill="#094184" stroke="#094184" stroke-width="1.51"/><path d="M2323,574L2311,233L2206,331Z" fill="#5475a3" stroke="#5475a3" stroke-width="1.51"/><path d="M2215,74L2209,-62L2168,79Z" fill="#7383ad" stroke="#7383ad" stroke-width="1.51"/><path d="M2311,233L2209,-62L2215,74Z" fill="#7081ac" stroke="#7081ac" stroke-width="1.51"/><path d="M20,-263L-186,-114L-45,-44Z" fill="#e6f0fa" stroke="#e6f0fa" stroke-width="1.51"/><path d="M-177,108L-186,-114L-236,562Z" fill="#d5e6f3" stroke="#d5e6f3" stroke-width="1.51"/><path d="M2153,1311L2269,1188L2134,1104Z" fill="#093e80" stroke="#093e80" stroke-width="1.51"/><path d="M-242,1136L-222,1330L-42,1260Z" fill="#8a99c3" stroke="#8a99c3" stroke-width="1.51"/><path d="M-42,1260L-222,1330L142,1363Z" fill="#818fb8" stroke="#818fb8" stroke-width="1.51"/><path d="M20,-263L-179,-247L-186,-114Z" fill="#ecf3fb" stroke="#ecf3fb" stroke-width="1.51"/><path d="M-186,-114L-179,-247L-236,562Z" fill="#dfebf7" stroke="#dfebf7" stroke-width="1.51"/><path d="M2209,-62L2226,-240L2125,-96Z" fill="#7d88b0" stroke="#7d88b0" stroke-width="1.51"/><path d="M2087,-180L2226,-240L1984,-260Z" fill="#8691b9" stroke="#8691b9" stroke-width="1.51"/><path d="M1984,-260L2226,-240L1851,-281Z" fill="#8a97c0" stroke="#8a97c0" stroke-width="1.51"/><path d="M2311,233L2226,-240L2209,-62Z" fill="#7685ae" stroke="#7685ae" stroke-width="1.51"/><path d="M2153,1311L2304,1335L2269,1188Z" fill="#093877" stroke="#093877" stroke-width="1.51"/><path d="M2269,1188L2304,1335L2310,941Z" fill="#0a4284" stroke="#0a4284" stroke-width="1.51"/><path d="M2310,941L2304,1335L2323,574Z" fill="#175090" stroke="#175090" stroke-width="1.51"/><path d="M1989,1357L2304,1335L2153,1311Z" fill="#083673" stroke="#083673" stroke-width="1.51"/></svg>